<?xml version="1.0" encoding="utf-8"?>
<!-- Generator: Adobe Illustrator 26.3.1, SVG Export Plug-In . SVG Version: 6.00 Build 0)  -->
<svg version="1.1" id="Layer_1" xmlns="http://www.w3.org/2000/svg" xmlns:xlink="http://www.w3.org/1999/xlink" x="0px" y="0px"
	 viewBox="0 0 50 50" style="enable-background:new 0 0 50 50;" xml:space="preserve">
<style type="text/css">
	.st0{fill:#A4ECA2;}
	.st1{fill:#4DB146;}
</style>
<g>
	<path class="st0" d="M49,25c0-6.6-2.3-12.3-7-17c-4.7-4.7-10.3-7-17-7S12.7,3.3,8,8c-4.7,4.7-7,10.4-7,17s2.3,12.3,7,17
		c4.7,4.7,10.4,7,17,7s12.3-2.3,17-7C46.7,37.3,49,31.6,49,25 M46.3,25c0,5.9-2.1,10.9-6.2,15c-4.1,4.2-9.1,6.2-15,6.2
		S14.1,44.2,10,40c-4.1-4.2-6.2-9.2-6.2-15c0-5.9,2.1-10.9,6.2-15c4.2-4.2,9.2-6.2,15-6.2S35.9,5.8,40,10
		C44.2,14.1,46.3,19.1,46.3,25 M38.7,38.7c3.8-3.8,5.7-8.4,5.7-13.7s-1.9-10-5.7-13.8C34.9,7.5,30.4,5.6,25,5.6s-10,1.9-13.8,5.7
		C7.4,15,5.5,19.6,5.5,25s1.9,9.9,5.7,13.7c3.8,3.8,8.4,5.7,13.8,5.7S34.9,42.5,38.7,38.7 M27.3,41.2c-13.9-9.3-16-20.1-6.4-32.3
		C37.3,24.6,39.5,35.3,27.3,41.2 M21.2,18.5c4.7,7,6.7,14.6,6.1,22.7C30.8,35,28.8,27.4,21.2,18.5z"/>
	<path class="st1" d="M40,40c4.2-4.2,6.2-9.2,6.2-15c0-5.9-2.1-10.9-6.2-15c-4.1-4.2-9.1-6.2-15-6.2S14.1,5.8,10,10
		c-4.1,4.2-6.2,9.2-6.2,15c0,5.9,2.1,10.9,6.2,15c4.2,4.2,9.2,6.2,15,6.2S35.9,44.2,40,40 M44.4,25c0,5.4-1.9,9.9-5.7,13.7
		c-3.8,3.8-8.4,5.7-13.7,5.7s-10-1.9-13.8-5.7C7.4,34.9,5.5,30.4,5.5,25s1.9-10,5.7-13.8C15,7.5,19.6,5.6,25,5.6s9.9,1.9,13.7,5.7
		C42.5,15,44.4,19.6,44.4,25 M27.3,41.2c0.7-8.1-1.4-15.7-6.1-22.7C28.8,27.4,30.8,35,27.3,41.2c12.2-5.8,10.1-16.6-6.4-32.3
		C11.2,21.1,13.4,31.8,27.3,41.2z"/>
</g>
</svg>
