<?xml version="1.0" encoding="utf-8"?>
<!-- Generator: Adobe Illustrator 26.3.1, SVG Export Plug-In . SVG Version: 6.00 Build 0)  -->
<svg version="1.1" id="Layer_1" xmlns="http://www.w3.org/2000/svg" xmlns:xlink="http://www.w3.org/1999/xlink" x="0px" y="0px"
	 viewBox="0 0 170 50" style="enable-background:new 0 0 170 50;" xml:space="preserve">
<style type="text/css">
	.st0{enable-background:new    ;}
	.st1{fill:#3FA338;}
	.st2{fill:url(#SVGID_1_);}
</style>
<g>
	<g class="st0">
		<path class="st1" d="M6.6,48.8v-11h4.9c1,0,1.7,0.1,2.2,0.3s0.9,0.5,1.2,1c0.3,0.5,0.5,1.1,0.5,1.7c0,0.8-0.3,1.4-0.8,2
			c-0.5,0.5-1.3,0.9-2.3,1c0.4,0.2,0.7,0.4,0.9,0.5c0.4,0.4,0.8,0.9,1.2,1.5l1.9,3h-1.8L13,46.5c-0.4-0.7-0.8-1.2-1.1-1.5
			c-0.3-0.4-0.5-0.6-0.7-0.7C11,44.1,10.8,44,10.6,44c-0.2,0-0.4-0.1-0.8-0.1H8.1v4.9H6.6z M8.1,42.6h3.1c0.7,0,1.2-0.1,1.6-0.2
			s0.7-0.4,0.9-0.7c0.2-0.3,0.3-0.6,0.3-1c0-0.5-0.2-1-0.6-1.3s-1-0.5-1.8-0.5H8.1V42.6z"/>
		<path class="st1" d="M17.6,39.3v-1.6h1.4v1.6H17.6z M17.6,48.8v-8h1.4v8H17.6z"/>
		<path class="st1" d="M26.2,48.8v-1c-0.5,0.8-1.3,1.2-2.2,1.2c-0.6,0-1.2-0.2-1.8-0.5s-0.9-0.8-1.2-1.5c-0.3-0.6-0.4-1.4-0.4-2.2
			c0-0.8,0.1-1.5,0.4-2.2c0.3-0.6,0.7-1.1,1.2-1.5c0.5-0.3,1.1-0.5,1.8-0.5c0.5,0,0.9,0.1,1.3,0.3c0.4,0.2,0.7,0.5,0.9,0.8v-4h1.3
			v11H26.2z M21.9,44.8c0,1,0.2,1.8,0.6,2.3c0.4,0.5,0.9,0.8,1.5,0.8c0.6,0,1.1-0.2,1.5-0.7c0.4-0.5,0.6-1.2,0.6-2.2
			c0-1.1-0.2-1.9-0.6-2.4c-0.4-0.5-0.9-0.8-1.6-0.8c-0.6,0-1.1,0.2-1.5,0.7C22.1,43,21.9,43.8,21.9,44.8z"/>
		<path class="st1" d="M35,46.2l1.4,0.2c-0.2,0.8-0.6,1.5-1.2,1.9S33.8,49,32.9,49c-1.2,0-2.1-0.4-2.8-1.1c-0.7-0.7-1-1.7-1-3
			c0-1.3,0.3-2.4,1-3.1c0.7-0.7,1.6-1.1,2.7-1.1c1.1,0,1.9,0.4,2.6,1.1c0.7,0.7,1,1.8,1,3.1c0,0.1,0,0.2,0,0.4h-6
			c0.1,0.9,0.3,1.5,0.7,2c0.4,0.5,1,0.7,1.7,0.7c0.5,0,0.9-0.1,1.3-0.4S34.8,46.8,35,46.2z M30.6,44H35c-0.1-0.7-0.2-1.2-0.5-1.5
			c-0.4-0.5-1-0.8-1.7-0.8c-0.6,0-1.1,0.2-1.6,0.6C30.8,42.8,30.6,43.4,30.6,44z"/>
		<path class="st1" d="M42.1,45.3l1.4-0.1c0.1,0.6,0.2,1,0.5,1.4c0.2,0.4,0.6,0.6,1.1,0.9c0.5,0.2,1.1,0.3,1.7,0.3
			c0.6,0,1-0.1,1.5-0.2s0.7-0.4,1-0.7c0.2-0.3,0.3-0.6,0.3-0.9c0-0.3-0.1-0.6-0.3-0.9s-0.5-0.5-1-0.7c-0.3-0.1-1-0.3-2-0.5
			c-1-0.2-1.7-0.5-2.1-0.7c-0.5-0.3-0.9-0.6-1.2-1c-0.3-0.4-0.4-0.9-0.4-1.4c0-0.6,0.2-1.1,0.5-1.6c0.3-0.5,0.8-0.9,1.4-1.1
			c0.6-0.3,1.3-0.4,2-0.4c0.8,0,1.5,0.1,2.2,0.4c0.6,0.3,1.1,0.7,1.4,1.2s0.5,1.1,0.5,1.7L49.1,41c-0.1-0.7-0.3-1.2-0.8-1.6
			c-0.4-0.4-1.1-0.5-1.9-0.5c-0.9,0-1.5,0.2-1.9,0.5c-0.4,0.3-0.6,0.7-0.6,1.2c0,0.4,0.1,0.7,0.4,1c0.3,0.3,1,0.5,2.2,0.8
			c1.2,0.3,2,0.5,2.4,0.7c0.6,0.3,1.1,0.7,1.4,1.1c0.3,0.5,0.5,1,0.5,1.6c0,0.6-0.2,1.1-0.5,1.7c-0.3,0.5-0.8,0.9-1.4,1.2
			c-0.6,0.3-1.3,0.4-2.1,0.4c-1,0-1.8-0.1-2.5-0.4s-1.2-0.7-1.6-1.3C42.3,46.7,42.1,46,42.1,45.3z"/>
		<path class="st1" d="M57.9,47.8c-0.5,0.4-1,0.7-1.4,0.9c-0.5,0.2-1,0.3-1.5,0.3c-0.9,0-1.6-0.2-2-0.6c-0.5-0.4-0.7-1-0.7-1.6
			c0-0.4,0.1-0.7,0.3-1.1c0.2-0.3,0.4-0.6,0.7-0.8c0.3-0.2,0.6-0.3,1-0.4c0.3-0.1,0.7-0.1,1.2-0.2c1.1-0.1,1.9-0.3,2.4-0.5
			c0-0.2,0-0.3,0-0.4c0-0.6-0.1-0.9-0.4-1.2c-0.3-0.3-0.9-0.5-1.5-0.5c-0.6,0-1.1,0.1-1.4,0.3s-0.5,0.6-0.7,1.2l-1.3-0.2
			c0.1-0.6,0.3-1,0.6-1.4c0.3-0.3,0.7-0.6,1.2-0.8c0.5-0.2,1.1-0.3,1.8-0.3c0.7,0,1.2,0.1,1.7,0.2s0.7,0.4,0.9,0.6
			c0.2,0.2,0.3,0.6,0.4,0.9c0,0.2,0.1,0.6,0.1,1.2v1.8c0,1.3,0,2.1,0.1,2.4c0.1,0.3,0.2,0.7,0.3,1h-1.4C58,48.5,57.9,48.2,57.9,47.8
			z M57.8,44.8c-0.5,0.2-1.2,0.4-2.2,0.5c-0.6,0.1-1,0.2-1.2,0.3c-0.2,0.1-0.4,0.2-0.5,0.4c-0.1,0.2-0.2,0.4-0.2,0.6
			c0,0.4,0.1,0.7,0.4,0.9c0.3,0.2,0.7,0.4,1.2,0.4c0.5,0,1-0.1,1.4-0.3c0.4-0.2,0.7-0.5,0.9-0.9c0.1-0.3,0.2-0.8,0.2-1.4V44.8z"/>
		<path class="st1" d="M61.6,48.8v-6.9h-1.2v-1.1h1.2V40c0-0.5,0-0.9,0.1-1.2c0.1-0.4,0.4-0.6,0.7-0.9c0.3-0.2,0.8-0.3,1.4-0.3
			c0.4,0,0.8,0,1.3,0.1l-0.2,1.2c-0.3-0.1-0.5-0.1-0.8-0.1c-0.4,0-0.7,0.1-0.9,0.3s-0.3,0.5-0.3,1v0.7h1.6v1.1h-1.6v6.9H61.6z"/>
		<path class="st1" d="M71,46.2l1.4,0.2c-0.2,0.8-0.6,1.5-1.2,1.9S69.8,49,68.9,49c-1.2,0-2.1-0.4-2.8-1.1c-0.7-0.7-1-1.7-1-3
			c0-1.3,0.3-2.4,1-3.1c0.7-0.7,1.6-1.1,2.7-1.1c1.1,0,1.9,0.4,2.6,1.1s1,1.8,1,3.1c0,0.1,0,0.2,0,0.4h-6c0.1,0.9,0.3,1.5,0.7,2
			c0.4,0.5,1,0.7,1.7,0.7c0.5,0,0.9-0.1,1.3-0.4S70.8,46.8,71,46.2z M66.5,44H71c-0.1-0.7-0.2-1.2-0.5-1.5c-0.4-0.5-1-0.8-1.7-0.8
			c-0.6,0-1.1,0.2-1.6,0.6C66.8,42.8,66.6,43.4,66.5,44z"/>
		<path class="st1" d="M74.5,48.8v-1.5H76v1.5H74.5z"/>
		<path class="st1" d="M82.9,48.8v-11h4.9c1,0,1.7,0.1,2.2,0.3s0.9,0.5,1.2,1c0.3,0.5,0.5,1.1,0.5,1.7c0,0.8-0.3,1.4-0.8,2
			c-0.5,0.5-1.3,0.9-2.3,1c0.4,0.2,0.7,0.4,0.9,0.5c0.4,0.4,0.8,0.9,1.2,1.5l1.9,3h-1.8l-1.5-2.3c-0.4-0.7-0.8-1.2-1.1-1.5
			c-0.3-0.4-0.5-0.6-0.7-0.7C87.3,44.1,87,44,86.8,44c-0.2,0-0.4-0.1-0.8-0.1h-1.7v4.9H82.9z M84.3,42.6h3.1c0.7,0,1.2-0.1,1.6-0.2
			c0.4-0.1,0.7-0.4,0.9-0.7s0.3-0.6,0.3-1c0-0.5-0.2-1-0.6-1.3c-0.4-0.3-1-0.5-1.8-0.5h-3.5V42.6z"/>
		<path class="st1" d="M93.8,39.3v-1.6h1.4v1.6H93.8z M93.8,48.8v-8h1.4v8H93.8z"/>
		<path class="st1" d="M102.4,48.8v-1c-0.5,0.8-1.3,1.2-2.2,1.2c-0.6,0-1.2-0.2-1.8-0.5c-0.5-0.4-0.9-0.8-1.2-1.5
			c-0.3-0.6-0.4-1.4-0.4-2.2c0-0.8,0.1-1.5,0.4-2.2c0.3-0.6,0.7-1.1,1.2-1.5c0.5-0.3,1.1-0.5,1.8-0.5c0.5,0,0.9,0.1,1.3,0.3
			c0.4,0.2,0.7,0.5,0.9,0.8v-4h1.3v11H102.4z M98.1,44.8c0,1,0.2,1.8,0.6,2.3c0.4,0.5,0.9,0.8,1.5,0.8c0.6,0,1.1-0.2,1.5-0.7
			c0.4-0.5,0.6-1.2,0.6-2.2c0-1.1-0.2-1.9-0.6-2.4c-0.4-0.5-0.9-0.8-1.6-0.8c-0.6,0-1.1,0.2-1.5,0.7C98.3,43,98.1,43.8,98.1,44.8z"
			/>
		<path class="st1" d="M111.2,46.2l1.4,0.2c-0.2,0.8-0.6,1.5-1.2,1.9s-1.4,0.7-2.3,0.7c-1.2,0-2.1-0.4-2.8-1.1c-0.7-0.7-1-1.7-1-3
			c0-1.3,0.3-2.4,1-3.1c0.7-0.7,1.6-1.1,2.7-1.1c1.1,0,1.9,0.4,2.6,1.1c0.7,0.7,1,1.8,1,3.1c0,0.1,0,0.2,0,0.4h-6
			c0.1,0.9,0.3,1.5,0.7,2c0.4,0.5,1,0.7,1.7,0.7c0.5,0,0.9-0.1,1.3-0.4S111,46.8,111.2,46.2z M106.8,44h4.5
			c-0.1-0.7-0.2-1.2-0.5-1.5c-0.4-0.5-1-0.8-1.7-0.8c-0.6,0-1.1,0.2-1.6,0.6C107.1,42.8,106.8,43.4,106.8,44z"/>
		<path class="st1" d="M124,44.5v-1.3l4.7,0v4.1c-0.7,0.6-1.5,1-2.2,1.3c-0.8,0.3-1.5,0.4-2.3,0.4c-1.1,0-2.1-0.2-3-0.7
			c-0.9-0.5-1.6-1.1-2-2c-0.5-0.9-0.7-1.9-0.7-2.9c0-1.1,0.2-2.1,0.7-3c0.4-0.9,1.1-1.6,1.9-2.1c0.8-0.5,1.8-0.7,2.9-0.7
			c0.8,0,1.5,0.1,2.2,0.4c0.6,0.3,1.2,0.6,1.5,1.1s0.6,1.1,0.8,1.8l-1.3,0.4c-0.2-0.6-0.4-1-0.6-1.3c-0.2-0.3-0.6-0.6-1.1-0.8
			c-0.5-0.2-1-0.3-1.5-0.3c-0.7,0-1.2,0.1-1.7,0.3c-0.5,0.2-0.9,0.5-1.2,0.8c-0.3,0.3-0.5,0.7-0.7,1.1c-0.3,0.7-0.4,1.4-0.4,2.2
			c0,1,0.2,1.8,0.5,2.5c0.3,0.7,0.8,1.2,1.5,1.5c0.6,0.3,1.3,0.5,2.1,0.5c0.6,0,1.2-0.1,1.9-0.4c0.6-0.2,1.1-0.5,1.4-0.8v-2.1H124z"
			/>
		<path class="st1" d="M130.6,48.8v-8h1.2V42c0.3-0.6,0.6-0.9,0.9-1.1c0.3-0.2,0.6-0.3,0.9-0.3c0.5,0,0.9,0.1,1.4,0.4l-0.5,1.3
			c-0.3-0.2-0.7-0.3-1-0.3c-0.3,0-0.6,0.1-0.8,0.3c-0.2,0.2-0.4,0.4-0.5,0.7c-0.2,0.5-0.2,1-0.2,1.6v4.2H130.6z"/>
		<path class="st1" d="M141.2,46.2l1.4,0.2c-0.2,0.8-0.6,1.5-1.2,1.9c-0.6,0.5-1.4,0.7-2.3,0.7c-1.2,0-2.1-0.4-2.8-1.1
			c-0.7-0.7-1-1.7-1-3c0-1.3,0.3-2.4,1-3.1c0.7-0.7,1.6-1.1,2.7-1.1c1.1,0,1.9,0.4,2.6,1.1s1,1.8,1,3.1c0,0.1,0,0.2,0,0.4h-6
			c0.1,0.9,0.3,1.5,0.7,2c0.4,0.5,1,0.7,1.7,0.7c0.5,0,0.9-0.1,1.3-0.4C140.7,47.2,141,46.8,141.2,46.2z M136.8,44h4.5
			c-0.1-0.7-0.2-1.2-0.5-1.5c-0.4-0.5-1-0.8-1.7-0.8c-0.6,0-1.1,0.2-1.6,0.6C137,42.8,136.8,43.4,136.8,44z"/>
		<path class="st1" d="M149.8,46.2l1.4,0.2c-0.2,0.8-0.6,1.5-1.2,1.9c-0.6,0.5-1.4,0.7-2.3,0.7c-1.2,0-2.1-0.4-2.8-1.1
			c-0.7-0.7-1-1.7-1-3c0-1.3,0.3-2.4,1-3.1c0.7-0.7,1.6-1.1,2.7-1.1c1.1,0,1.9,0.4,2.6,1.1s1,1.8,1,3.1c0,0.1,0,0.2,0,0.4h-6
			c0.1,0.9,0.3,1.5,0.7,2c0.4,0.5,1,0.7,1.7,0.7c0.5,0,0.9-0.1,1.3-0.4C149.3,47.2,149.6,46.8,149.8,46.2z M145.3,44h4.5
			c-0.1-0.7-0.2-1.2-0.5-1.5c-0.4-0.5-1-0.8-1.7-0.8c-0.6,0-1.1,0.2-1.6,0.6C145.6,42.8,145.4,43.4,145.3,44z"/>
		<path class="st1" d="M152.9,48.8v-8h1.2V42c0.6-0.9,1.4-1.3,2.5-1.3c0.5,0,0.9,0.1,1.3,0.3c0.4,0.2,0.7,0.4,0.9,0.7
			c0.2,0.3,0.3,0.6,0.4,1c0.1,0.3,0.1,0.7,0.1,1.3v4.9H158V44c0-0.6-0.1-1-0.2-1.2c-0.1-0.3-0.3-0.5-0.6-0.7
			c-0.3-0.2-0.6-0.2-0.9-0.2c-0.6,0-1.1,0.2-1.5,0.5c-0.4,0.4-0.6,1.1-0.6,2.1v4.4H152.9z"/>
		<path class="st1" d="M161.8,48.8v-1.5h1.5v1.5H161.8z"/>
	</g>
	
		<linearGradient id="SVGID_1_" gradientUnits="userSpaceOnUse" x1="-408.2428" y1="399.8752" x2="-522.9177" y2="331.4599" gradientTransform="matrix(1 0 0 -1 551.1 381)">
		<stop  offset="0" style="stop-color:#561258"/>
		<stop  offset="1" style="stop-color:#4CB045"/>
	</linearGradient>
	<path class="st2" d="M21.1,4.9c0.7,0,1.4,0.1,1.9,0.2c0.5,0.1,1.2,0.3,2.1,0.5c0,0,0.3,0.1,0.9,0.3l1.4-3.2c-0.9-0.5-2-0.9-3.3-1.1
		c-1.2-0.3-2.3-0.4-3.1-0.4c-2.3,0-4.4,0.5-6.2,1.6c-1.9,1-3.3,2.5-4.4,4.4c-1,1.9-1.5,3.9-1.5,6.2c0,2.3,0.5,4.3,1.4,6.1
		c0.9,1.8,2.3,3.3,4,4.3s3.8,1.6,6.2,1.6c1.4,0,2.7-0.2,3.9-0.5c1.3-0.3,2.4-0.7,3.3-1.2V12.2h-8.5l-0.4,3.4h4.9v5.7
		c-1.2,0.3-2.3,0.4-3.4,0.4c-1.3,0-2.5-0.3-3.6-1c-1.1-0.7-1.9-1.7-2.4-3c-0.6-1.3-0.9-2.7-0.9-4.4c0-1.8,0.3-3.4,1-4.7
		c0.7-1.3,1.6-2.2,2.7-2.9C18.4,5.3,19.7,4.9,21.1,4.9 M41.5,11.9l-0.9-3.6c-0.8,0-1.8,0.3-2.9,0.9c-1.1,0.6-2,1.2-2.8,1.9l-1.5-2.8
		h-2.3V25h4.5V14.8c1-0.8,2-1.5,3.1-2.1C39.8,12.2,40.7,11.9,41.5,11.9 M51.1,7.9c-1.7,0-3.2,0.4-4.5,1.1s-2.2,1.7-2.9,3
		c-0.7,1.3-1,2.9-1,4.7c0,2.7,0.8,4.8,2.4,6.4c1.6,1.5,4,2.3,7.2,2.3c1.3,0,2.5-0.2,3.5-0.6c1-0.3,1.9-0.8,2.7-1.5l-1.3-3.2
		c-0.9,0.5-1.6,0.8-2.4,1.1c-0.7,0.3-1.6,0.4-2.5,0.4c-1.6,0-2.7-0.3-3.5-0.9c-0.8-0.6-1.3-1.5-1.5-2.7h11.2v-1.4
		c0-1.6-0.3-3.1-0.8-4.4c-0.5-1.3-1.4-2.4-2.5-3.1C54.1,8.3,52.7,7.9,51.1,7.9 M47.5,15c0.2-1.1,0.6-1.9,1.2-2.4
		c0.6-0.6,1.4-0.9,2.3-0.9c0.9,0,1.7,0.3,2.2,0.8c0.6,0.6,1,1.4,1.2,2.5H47.5 M68.7,7.9c-1.7,0-3.2,0.4-4.5,1.1
		c-1.3,0.7-2.2,1.7-2.9,3c-0.7,1.3-1,2.9-1,4.7c0,2.7,0.8,4.8,2.4,6.4c1.6,1.5,4,2.3,7.2,2.3c1.3,0,2.5-0.2,3.5-0.6
		c1-0.3,1.9-0.8,2.7-1.5l-1.3-3.2c-0.9,0.5-1.6,0.8-2.4,1.1c-0.7,0.3-1.6,0.4-2.5,0.4c-1.6,0-2.7-0.3-3.5-0.9
		c-0.8-0.6-1.3-1.5-1.5-2.7h11.2v-1.4c0-1.6-0.3-3.1-0.8-4.4s-1.4-2.4-2.5-3.1C71.8,8.3,70.3,7.9,68.7,7.9 M65.1,15
		c0.2-1.1,0.6-1.9,1.2-2.4c0.6-0.6,1.4-0.9,2.3-0.9s1.7,0.3,2.2,0.8c0.6,0.6,1,1.4,1.2,2.5H65.1 M93.5,9.6c-0.8-1.2-2.3-1.8-4.4-1.8
		c-0.9,0-2,0.2-3.1,0.6c-1.1,0.4-2.2,1-3.3,1.7l-0.8-1.8H79V25h4.5V13.5c0.8-0.6,1.6-1,2.3-1.4c0.7-0.3,1.4-0.5,2.2-0.5
		c0.7,0,1.3,0.3,1.8,0.8c0.4,0.6,0.6,1.4,0.6,2.4V25h4.5V14.6C94.8,12.4,94.3,10.8,93.5,9.6 M113.7,5.9l1.4-3.2
		c-0.9-0.5-2-0.9-3.1-1.1c-1.2-0.3-2.2-0.4-3-0.4c-2.2,0-4.2,0.5-5.9,1.5c-1.7,1.1-3,2.5-3.9,4.3c-0.9,1.9-1.4,4-1.4,6.3
		c0,2.3,0.4,4.4,1.3,6.2c0.8,1.8,2.1,3.3,3.8,4.3c1.7,1,3.7,1.5,6,1.5c1,0,2.1-0.1,3.4-0.4c1.3-0.3,2.3-0.7,3.2-1.1l-1.7-3.3
		c-1.7,0.7-3.4,1-5.1,1c-1.3,0-2.4-0.4-3.3-1.1c-0.9-0.7-1.7-1.7-2.1-3c-0.5-1.3-0.7-2.7-0.7-4.2c0-1.7,0.3-3.2,0.8-4.5
		c0.6-1.3,1.3-2.3,2.3-3c1-0.7,2.1-1,3.3-1c0.8,0,1.4,0.1,2,0.2c0.5,0.1,1.2,0.3,2.1,0.6L113.7,5.9 M141.6,8.4h-4.5V25h4.5V8.4
		 M133.3,21.2c0.7-1.3,1.1-2.9,1.1-4.6c0-1.8-0.4-3.3-1.1-4.6c-0.7-1.3-1.8-2.3-3.1-3c-1.3-0.7-2.9-1.1-4.7-1.1
		c-1.8,0-3.3,0.4-4.7,1.1c-1.3,0.7-2.4,1.7-3.1,3c-0.7,1.3-1.1,2.9-1.1,4.7c0,1.7,0.4,3.3,1.1,4.6c0.7,1.3,1.7,2.3,3.1,3
		c1.3,0.7,2.9,1.1,4.7,1.1c1.8,0,3.3-0.4,4.7-1.1C131.5,23.6,132.6,22.6,133.3,21.2 M129.8,16.6c0,1.4-0.4,2.6-1.2,3.6
		c-0.8,0.9-1.9,1.4-3.1,1.4c-1.3,0-2.3-0.5-3.1-1.4c-0.8-0.9-1.2-2.1-1.2-3.5c0-1.5,0.4-2.7,1.2-3.6c0.8-0.9,1.9-1.4,3.1-1.4
		c1.3,0,2.3,0.5,3.1,1.4C129.4,14,129.8,15.2,129.8,16.6 M141.8,3.5c0-0.7-0.2-1.3-0.7-1.8C140.6,1.2,140,1,139.3,1
		c-0.7,0-1.3,0.2-1.8,0.7c-0.5,0.5-0.7,1-0.7,1.8s0.2,1.3,0.7,1.8c0.5,0.5,1.1,0.7,1.8,0.7c0.7,0,1.3-0.2,1.8-0.7
		C141.6,4.8,141.8,4.2,141.8,3.5 M155.4,7.8c-0.9,0-2,0.2-3.1,0.6c-1.1,0.4-2.2,1-3.3,1.7l-0.8-1.8h-2.9V25h4.5V13.5
		c0.8-0.6,1.6-1,2.3-1.4c0.7-0.3,1.4-0.5,2.2-0.5c0.7,0,1.3,0.3,1.8,0.8c0.4,0.6,0.6,1.4,0.6,2.4V25h4.5V14.6c0-2.1-0.4-3.8-1.3-5
		C159,8.4,157.5,7.8,155.4,7.8z"/>
</g>
</svg>
